<svg width="494" height="105" viewBox="0 0 494 105" fill="none" xmlns="http://www.w3.org/2000/svg">
<path d="M74.1941 0.206463C73.0274 0.063153 68.5848 -0.0553424 67.4737 0.0271901C63.8825 0.293776 61.5175 0.726322 58.982 1.58018C53.5261 3.41737 49.4929 7.03707 46.477 12.8035C45.2087 15.2283 44.4236 17.1869 42.633 22.3926C40.8495 27.5777 40.1703 29.3024 39.2516 30.9798C37.8542 33.5312 36.3635 35.1933 34.5353 36.2383C34.1719 36.446 33.3037 36.826 32.6058 37.0826C28.5682 38.5682 25.4467 40.4441 22.8457 42.9482C18.9242 46.7235 16.6407 51.7064 16.0641 57.7468L16 58.4181L17.504 58.6427C22.9513 59.4562 26.751 61.0842 29.0307 63.5815C30.8186 65.5399 31.8558 66.5509 32.5967 69.3838C33.0193 70.999 33.2833 72.8216 33.5782 76.1582C33.9435 80.2912 34.2453 81.4933 35.1602 82.4585C35.6052 82.928 35.4067 82.8519 40.1504 84.3713C41.9041 84.933 43.935 85.6248 44.6634 85.9085C47.2334 86.9094 49.1545 88.0506 50.7243 89.509C52.4878 91.1474 53.5586 92.6415 55.2067 95.7634C56.4054 98.0342 57.0685 99.0638 58.0344 100.155C60.7062 103.172 64.787 104.509 70.7603 104.321C73.3666 104.24 75.1419 103.948 76.9624 103.302C79.7032 102.329 81.7192 100.465 84.1064 96.699C84.5481 96.002 85.2102 94.9594 85.5776 94.3822C87.3834 91.5449 89.2376 89.6899 91.3208 88.6366C91.7563 88.4165 92.8158 88.0027 93.6755 87.7171C95.5126 87.1069 96.556 86.6799 97.554 86.1299C100.267 84.6345 101.97 82.6389 103.024 79.7165C103.345 78.8263 103.782 77.2454 104.362 74.8701C105.015 72.1991 105.751 70.2554 106.632 68.8818C108.474 66.0076 110.9 65.3264 114.669 64.4193C116.822 63.9011 119.594 63.6113 122.396 63.6113H123.967L123.902 60.8681C123.747 54.2889 122.999 50.2688 121.297 46.8767C119.375 43.0446 116.475 40.4766 112.025 38.666C110.683 38.1201 109.516 37.754 107.439 37.2272C105.102 36.6344 104.036 36.0636 102.687 34.6823C100.881 32.833 99.5953 30.2893 97.6103 24.6348C95.141 17.6001 94.0215 14.9162 92.3967 12.1365C88.1497 4.87021 82.6107 1.23998 74.1941 0.206463Z" fill="white"/>
<ellipse cx="56.1076" cy="29.8636" rx="4.51087" ry="7.0605" fill="#333333"/>
<ellipse cx="74.4831" cy="29.9409" rx="4.55727" ry="7.13312" transform="rotate(3.34157 74.4831 29.9409)" fill="#333333"/>
<path d="M103.644 70.8015H134.876C135.113 70.8017 135.295 71.0094 135.265 71.2439L132.83 90.072C132.805 90.2673 132.639 90.4136 132.442 90.4138H106.078C105.881 90.4138 105.714 90.2675 105.689 90.072L103.254 71.2439C103.224 71.0092 103.407 70.8015 103.644 70.8015Z" fill="#F36B2C" stroke="#F36B2C" stroke-width="3.138"/>
<path d="M128.674 70.3109V65.4077C128.674 62.8081 126.566 60.7007 123.967 60.7007H114.553C111.953 60.7007 109.846 62.8081 109.846 65.4077V70.3109" stroke="#F36B2C" stroke-width="3.23606"/>
<path d="M0 27L11.7607 33.2479V70L0 63.7521V27Z" fill="#F36B2C"/>
<path d="M27.9316 27L39.6923 33.2479V70L27.9316 63.7521V27Z" fill="#F36B2C"/>
<path d="M13.9658 70L25.7265 63.7521V27L13.9658 33.2479V70Z" fill="#F36B2C"/>
<path d="M182.868 76.912C182.868 77.8187 180.624 78.272 176.136 78.272C171.648 78.272 169.404 77.8187 169.404 76.912V42.776H161.244C160.473 42.776 159.929 41.7333 159.612 39.648C159.476 38.6507 159.408 37.6307 159.408 36.588C159.408 35.5453 159.476 34.5253 159.612 33.528C159.929 31.4427 160.473 30.4 161.244 30.4H190.824C191.595 30.4 192.139 31.4427 192.456 33.528C192.592 34.5253 192.66 35.5453 192.66 36.588C192.66 37.6307 192.592 38.6507 192.456 39.648C192.139 41.7333 191.595 42.776 190.824 42.776H182.868V76.912ZM210.089 77.932C210.089 78.2493 208.026 78.408 203.901 78.408C199.775 78.3173 197.713 78.136 197.713 77.864V55.288H195.877C195.151 55.288 194.562 54.8573 194.109 53.996C193.701 53.0893 193.497 51.9787 193.497 50.664C193.497 45.768 194.947 43.32 197.849 43.32C199.889 43.32 201.589 43.9547 202.949 45.224C204.309 46.448 204.989 47.8533 204.989 49.44C205.941 47.5813 207.21 46.108 208.797 45.02C210.429 43.8867 212.083 43.32 213.761 43.32C216.39 43.32 217.977 44 218.521 45.36C218.657 45.7227 218.725 46.2667 218.725 46.992C218.725 47.672 218.498 48.9187 218.045 50.732C217.637 52.5453 217.206 53.86 216.753 54.676C216.299 55.492 216.027 55.9 215.937 55.9C215.846 55.9 215.415 55.7413 214.645 55.424C213.919 55.0613 213.262 54.88 212.673 54.88C210.95 54.88 210.089 56.24 210.089 58.96V77.932ZM247.862 76.164C245.006 77.8413 241.334 78.68 236.846 78.68C232.358 78.68 228.572 77.1613 225.49 74.124C222.407 71.0413 220.866 66.8027 220.866 61.408C220.866 55.968 222.339 51.5933 225.286 48.284C228.278 44.9747 232.04 43.32 236.574 43.32C241.107 43.32 244.598 44.476 247.046 46.788C249.539 49.1 250.786 51.9107 250.786 55.22C250.786 62.564 246.57 66.236 238.138 66.236H233.446C233.446 67.596 233.808 68.548 234.534 69.092C235.304 69.5907 236.415 69.84 237.866 69.84C241.039 69.84 244.054 69.1147 246.91 67.664C246.955 67.6187 247.159 67.936 247.522 68.616C248.61 70.5653 249.154 72.22 249.154 73.58C249.154 74.8947 248.723 75.756 247.862 76.164ZM239.362 56.512C239.362 54.608 238.432 53.656 236.574 53.656C235.712 53.656 234.964 53.928 234.33 54.472C233.74 54.9707 233.446 55.7187 233.446 56.716V58.824H237.118C238.614 58.824 239.362 58.0533 239.362 56.512ZM259.512 53.316C258.243 51.0493 257.608 49.2133 257.608 47.808C257.608 46.3573 257.993 45.428 258.764 45.02C261.348 43.8867 264.884 43.32 269.372 43.32C273.905 43.32 277.101 44.3853 278.96 46.516C280.819 48.6013 281.748 51.7067 281.748 55.832V66.576H284.06C284.831 66.576 285.42 67.0293 285.828 67.936C286.281 68.8427 286.508 70.0893 286.508 71.676C286.508 73.2627 286.1 74.8267 285.284 76.368C284.513 77.9093 283.448 78.68 282.088 78.68C279.64 78.68 277.668 78.0227 276.172 76.708C275.492 76.164 274.971 75.5067 274.608 74.736C272.523 77.3653 269.281 78.68 264.884 78.68C261.575 78.68 258.787 77.5013 256.52 75.144C254.253 72.7867 253.12 69.9987 253.12 66.78C253.12 59.3907 257.54 55.696 266.38 55.696H270.12V55.016C270.12 53.8373 269.916 53.0893 269.508 52.772C269.145 52.4093 268.261 52.228 266.856 52.228C265.133 52.228 262.685 52.5907 259.512 53.316ZM264.952 65.828C264.952 66.8253 265.224 67.596 265.768 68.14C266.312 68.6387 266.992 68.888 267.808 68.888C268.669 68.888 269.44 68.548 270.12 67.868V62.632H268.216C266.04 62.632 264.952 63.6973 264.952 65.828ZM305.997 77.592C305.997 78.136 304.093 78.408 300.285 78.408C295.752 78.2267 293.485 77.932 293.485 77.524V53.452H290.017C289.11 53.452 288.657 51.888 288.657 48.76C288.657 47.944 288.725 46.9467 288.861 45.768C289.042 44.5893 289.382 44 289.881 44H293.485V38.016C293.485 37.1093 295.389 36.656 299.197 36.656C303.05 36.656 304.977 37.0187 304.977 37.744V42.096L305.045 44H310.825C311.596 44 311.981 45.5867 311.981 48.76C311.981 51.9333 311.596 53.52 310.825 53.52H305.997V77.592ZM376.148 78.068C372.114 78.068 370.096 77.6147 370.096 76.708L368.668 49.44L360.372 77.048C360.191 77.592 358.65 77.864 355.748 77.864C352.847 77.864 351.351 77.6147 351.26 77.116L342.692 49.168L341.74 76.3C341.695 76.98 340.834 77.456 339.156 77.728C337.479 77.9547 336.074 78.068 334.94 78.068C333.852 78.068 332.787 78 331.744 77.864C329.568 77.5467 328.503 76.98 328.548 76.164L330.112 31.964C330.112 30.876 332.878 30.332 338.408 30.332C340.04 30.332 342.035 30.468 344.392 30.74C346.75 30.9667 348.064 31.4427 348.336 32.168L355.952 53.588L362.616 32.1C363.024 30.9213 366.152 30.332 372 30.332C373.678 30.332 375.672 30.468 377.984 30.74C380.342 30.9667 381.52 31.3973 381.52 32.032L383.492 76.64C383.492 77.1387 382.608 77.5013 380.84 77.728C379.072 77.9547 377.508 78.068 376.148 78.068ZM394.184 53.316C392.915 51.0493 392.28 49.2133 392.28 47.808C392.28 46.3573 392.665 45.428 393.436 45.02C396.02 43.8867 399.556 43.32 404.044 43.32C408.577 43.32 411.773 44.3853 413.632 46.516C415.491 48.6013 416.42 51.7067 416.42 55.832V66.576H418.732C419.503 66.576 420.092 67.0293 420.5 67.936C420.953 68.8427 421.18 70.0893 421.18 71.676C421.18 73.2627 420.772 74.8267 419.956 76.368C419.185 77.9093 418.12 78.68 416.76 78.68C414.312 78.68 412.34 78.0227 410.844 76.708C410.164 76.164 409.643 75.5067 409.28 74.736C407.195 77.3653 403.953 78.68 399.556 78.68C396.247 78.68 393.459 77.5013 391.192 75.144C388.925 72.7867 387.792 69.9987 387.792 66.78C387.792 59.3907 392.212 55.696 401.052 55.696H404.792V55.016C404.792 53.8373 404.588 53.0893 404.18 52.772C403.817 52.4093 402.933 52.228 401.528 52.228C399.805 52.228 397.357 52.5907 394.184 53.316ZM399.624 65.828C399.624 66.8253 399.896 67.596 400.44 68.14C400.984 68.6387 401.664 68.888 402.48 68.888C403.341 68.888 404.112 68.548 404.792 67.868V62.632H402.888C400.712 62.632 399.624 63.6973 399.624 65.828ZM439.649 90.376C439.649 90.6933 437.699 90.852 433.801 90.852C429.947 90.852 428.021 90.6933 428.021 90.376V55.356H425.709C424.621 55.356 423.873 54.3587 423.465 52.364C423.329 51.7293 423.261 50.9133 423.261 49.916C423.261 48.9187 423.578 47.74 424.213 46.38C425.119 44.3853 426.57 43.388 428.565 43.388C429.879 43.388 431.081 43.7053 432.169 44.34C433.302 44.9293 434.073 45.496 434.481 46.04C434.934 46.5387 435.161 46.8333 435.161 46.924C438.198 44.5667 441.485 43.388 445.021 43.388C448.557 43.388 451.594 44.7707 454.133 47.536C456.671 50.256 457.941 54.4947 457.941 60.252C457.941 65.964 456.671 70.4067 454.133 73.58C451.594 76.708 448.375 78.272 444.477 78.272C442.709 78.272 441.099 78.1813 439.649 78V90.376ZM442.437 55.288C441.666 55.288 440.918 55.5373 440.193 56.036V68.072C440.963 68.1627 441.575 68.208 442.029 68.208C442.527 68.208 442.913 68.208 443.185 68.208C445.043 68.0267 445.973 65.6467 445.973 61.068C445.973 57.2147 444.794 55.288 442.437 55.288Z" fill="white"/>
</svg>
